<svg version="1.1" width="241" height="72" viewBox="-1 -1 241 72" xmlns="http://www.w3.org/2000/svg" xmlns:xlink="http://www.w3.org/1999/xlink">
  <defs>
    <linearGradient id="grad_1" y2="1">
      <stop offset="0" stop-color="#FF0000" stop-opacity="1"/>
      <stop offset="1" stop-color="#FFFFFF" stop-opacity="1"/>
    </linearGradient>
    <linearGradient id="grad_2" y2="1">
      <stop offset="0" stop-color="#FF0000" stop-opacity="1"/>
      <stop offset="1" stop-color="#FFFFFF" stop-opacity="1"/>
    </linearGradient>
    <linearGradient id="grad_3" y2="1">
      <stop offset="0" stop-color="#FF0000" stop-opacity="1"/>
      <stop offset="1" stop-color="#FFFFFF" stop-opacity="1"/>
    </linearGradient>
    <linearGradient id="grad_4" y2="1">
      <stop offset="0" stop-color="#FF0000" stop-opacity="1"/>
      <stop offset="1" stop-color="#FFFFFF" stop-opacity="1"/>
    </linearGradient>
    <linearGradient id="grad_5" y2="1">
      <stop offset="0" stop-color="#FF0000" stop-opacity="1"/>
      <stop offset="1" stop-color="#FFFFFF" stop-opacity="1"/>
    </linearGradient>
    <linearGradient id="grad_6" y2="1">
      <stop offset="0" stop-color="#FF0000" stop-opacity="1"/>
      <stop offset="1" stop-color="#FFFFFF" stop-opacity="1"/>
    </linearGradient>
    <linearGradient id="grad_7" y2="1">
      <stop offset="0" stop-color="#FF0000" stop-opacity="1"/>
      <stop offset="1" stop-color="#FFFFFF" stop-opacity="1"/>
    </linearGradient>
    <linearGradient id="grad_8" y2="1">
      <stop offset="0" stop-color="#FF0000" stop-opacity="1"/>
      <stop offset="1" stop-color="#FFFFFF" stop-opacity="1"/>
    </linearGradient>
    <linearGradient id="grad_9" y2="1">
      <stop offset="0" stop-color="#FF0000" stop-opacity="1"/>
      <stop offset="1" stop-color="#FFFFFF" stop-opacity="1"/>
    </linearGradient>
    <linearGradient id="grad_10" y2="1">
      <stop offset="0" stop-color="#FF0000" stop-opacity="1"/>
      <stop offset="1" stop-color="#FFFFFF" stop-opacity="1"/>
    </linearGradient>
  </defs>
  <!-- Exported by Scratch - http://scratch.mit.edu/ -->
  <g id="ID0.7766572097316384" transform="matrix(1, 0, 0, 1, -135, -146)">
    <path id="ID0.22094288188964128" fill="url(#grad_1)" stroke="#000000" stroke-width="1" stroke-linecap="round" d="M 256.600 155.250 L 248.650 155.300 L 249.550 194.900 L 256.850 194.750 L 257.550 178.750 L 264.650 178.850 L 265.100 194.600 L 272.600 194.650 L 271.250 155.500 L 265.100 155.350 L 264.900 167.300 L 256.700 167.650 L 256.600 155.250 Z " transform="matrix(1, 0, 0, 1, -83.6, -8.25)"/>
    <path id="ID0.4784581628628075" fill="url(#grad_2)" stroke="#000000" stroke-width="1" stroke-linecap="round" d="M 306.250 219.750 L 301.750 219.750 L 301 175.250 L 318.250 175.250 L 315.700 190.450 L 307 191.750 L 306.250 219.750 Z " transform="matrix(1, 0, 0, 1, -84.25, -4.05)"/>
    <path id="ID0.36233857460319996" fill="#FFFFFF" stroke="#000000" stroke-width="1" stroke-linecap="round" d="M 305.750 182 L 305.750 186.750 L 311.250 186.250 L 310.750 181.250 L 305.750 182 Z " transform="matrix(1, 0, 0, 1, -84.25, -4.05)"/>
    <path id="ID0.20162828778848052" fill="url(#grad_3)" stroke="#000000" stroke-width="1" stroke-linecap="round" d="M 339 171.500 L 337.750 175.500 L 331 175.250 L 330.500 181.250 L 333.500 181 L 333.750 185 L 330 184.500 L 329.250 189 L 335.250 189.250 L 336 193.250 L 325.350 193.250 L 326 174.750 L 326.500 170.500 L 339 171.500 Z " transform="matrix(1, 0, 0, 1, -87.4, -6.9)"/>
    <path id="ID0.8206952442415059" fill="url(#grad_4)" stroke="#000000" stroke-width="1" stroke-linecap="round" d="M 347.500 192.250 L 344.700 192.350 L 344 171 L 356.250 171.250 L 350.750 178.750 L 347.500 178.750 L 358.550 192.250 L 354.050 192.250 L 347.500 183.500 L 347.500 192.250 Z " transform="matrix(1, 0, 0, 1, -90.35, -5.8)"/>
    <path id="ID0.6867356770671904" fill="#FFFFFF" stroke="#000000" stroke-width="1" stroke-linecap="round" d="M 350.950 175.150 L 350.800 174.850 L 347.500 173.750 L 347.500 176.750 L 350.950 175.150 Z " transform="matrix(1, 0, 0, 1, -90.35, -5.8)"/>
    <path id="ID0.38201803667470813" fill="url(#grad_5)" stroke="#000000" stroke-width="1" stroke-linecap="round" d="M 282.250 196.200 L 286.550 185.200 L 281.500 174.500 L 285.750 173 L 288.800 181 L 293 174.700 L 295.250 177.500 L 286 198.700 L 282.500 196.500 Z " transform="matrix(1, 0, 0, 1, -83.85, -2.4)"/>
    <path id="ID0.9977840157225728" fill="url(#grad_6)" stroke="#000000" stroke-width="1" stroke-linecap="round" d="M 306.450 189.100 L 317.250 178.250 L 326.450 189.100 L 339.700 158.600 L 334.400 155.900 L 323.250 172.500 L 319.250 163.250 L 311.900 172.500 L 309 156 L 298.750 156.250 L 306.450 189.100 Z " transform="matrix(1, 0, 0, 1, -30.55, -3.05)"/>
    <path id="ID0.6927947201766074" fill="url(#grad_7)" stroke="#000000" stroke-width="1" stroke-linecap="round" d="M 344.500 179.500 L 349.500 173.750 L 359.750 173.500 L 364.250 178.750 L 364 185.500 L 359 190.500 L 350.250 190.500 L 345.250 186.500 L 344.750 180.250 Z " transform="matrix(1, 0, 0, 1, -39.15, -4.25)"/>
    <path id="ID0.9116705036722124" fill="#FFFFFF" stroke="#000000" stroke-width="1" stroke-linecap="round" d="M 350.900 179.850 L 357 180 L 356.500 185.250 L 351.600 184.750 L 350.900 179.850 Z " transform="matrix(1, 0, 0, 1, -39.15, -4.25)"/>
    <path id="ID0.45229941653087735" fill="url(#grad_8)" stroke="#000000" stroke-width="1" stroke-linecap="round" d="M 368.250 173.750 L 364.250 173.750 L 363.550 191.600 L 367.850 191.550 L 368.250 180 L 375.250 177.750 L 374.750 175.750 L 368.750 176.250 L 368.250 173.750 Z " transform="matrix(1, 0, 0, 1, -34.15, -5.3)"/>
    <path id="ID0.7861217902973294" fill="url(#grad_9)" stroke="#000000" stroke-width="1" stroke-linecap="round" d="M 382.400 191.700 L 380.750 154 L 386.750 153.500 L 386.150 191.650 L 382.400 191.700 Z " transform="matrix(1, 0, 0, 1, -36.9, -5.4)"/>
    <path id="ID0.6203547702170908" fill="url(#grad_10)" stroke="#000000" stroke-width="1" stroke-linecap="round" d="M 393.750 191.650 L 393.750 184.500 L 397.500 179.250 L 408.500 179.250 L 408.250 153 L 415.250 152.500 L 414.250 178.250 L 414.200 191.550 L 393.750 191.650 Z " transform="matrix(1, 0, 0, 1, -40.15, -5.4)"/>
    <path id="ID0.22652089083567262" fill="#FFFFFF" stroke="#000000" stroke-width="1" stroke-linecap="round" d="M 408 186.750 L 401.250 183.500 L 401 189 L 408 186.750 Z " transform="matrix(1, 0, 0, 1, -40.15, -5.4)"/>
    <g id="ID0.14444783050566912">
      <path id="ID0.27696054242551327" fill="#FFFFFF" stroke="#000000" stroke-width="1" stroke-linecap="round" d="M 136.300 159.450 L 136.550 157.400 L 137.450 155.100 L 138.350 153.300 L 139.050 151.750 L 140.300 149.750 L 141.750 148.100 L 143.950 147.200 L 146.250 146.500 L 149.550 146.950 L 151.900 148.150 L 154.600 187.650 L 150.500 188.300 L 148.050 155 L 145.450 155.250 L 144.500 157.750 L 143.300 159.950 L 141.500 161.900 L 139.350 162.450 L 137.500 161.250 L 136.300 159.450 Z "/>
      <path id="ID0.34255112521350384" fill="#FF0000" stroke="#FF0000" stroke-width="1" stroke-linecap="round" d="M 138.500 161.750 L 137.700 160.800 L 143.800 158.300 L 142.250 160.850 L 138.500 161.750 Z "/>
      <path id="ID0.34255112521350384" fill="#FF0000" stroke="#FF0000" stroke-width="1" stroke-linecap="round" d="M 137.250 162.550 L 137.700 160.600 L 145.050 161.200 L 144.400 162.200 L 137.250 162.550 Z " transform="matrix(1, 0, 0, 1, 0.3, -5.9)"/>
      <path id="ID0.34255112521350384" fill="#FF0000" stroke="#FF0000" stroke-width="1" stroke-linecap="round" d="M 140.050 165.400 L 135.500 160.750 L 137 159 L 141.250 165.250 L 140.050 165.400 Z " transform="matrix(1, 0, 0, 1, 5.25, -10.65)"/>
      <path id="ID0.34255112521350384" fill="#FF0000" stroke="#FF0000" stroke-width="1" stroke-linecap="round" d="M 139.550 165.200 L 139.300 161.700 L 142.900 159.250 L 143.100 161.650 L 139.550 165.200 Z " transform="matrix(1, 0, 0, 1, 9.15, -5.15)"/>
      <path id="ID0.34255112521350384" fill="#FF0000" stroke="#FF0000" stroke-width="1" stroke-linecap="round" d="M 139.550 165.200 L 139.300 161.700 L 142.900 159.250 L 143.100 161.650 L 139.550 165.200 Z " transform="matrix(1, 0, 0, 1, 9.7, 2.9)"/>
      <path id="ID0.34255112521350384" fill="#FF0000" stroke="#FF0000" stroke-width="1" stroke-linecap="round" d="M 139.550 165.200 L 139.300 161.750 L 142.700 159.250 L 142.750 161.900 L 139.550 165.200 Z " transform="matrix(1, 0, 0, 1, 10.5, 10.55)"/>
      <path id="ID0.34255112521350384" fill="#FF0000" stroke="#FF0000" stroke-width="1" stroke-linecap="round" d="M 139.700 165.300 L 139.450 161.650 L 142.950 159.450 L 143.050 162 L 139.700 165.300 Z " transform="matrix(1, 0, 0, 1, 10.75, 19)"/>
      <path id="ID0.34255112521350384" fill="#FF0000" stroke="#FF0000" stroke-width="1" stroke-linecap="round" d="M 138.500 165.500 L 138.600 158.300 L 140.100 158.400 L 138.750 166.100 L 138.500 165.500 Z " transform="matrix(1, 0, 0, 1, 9.75, -10.9)"/>
      <path id="ID0.27696054242551327" fill="none" stroke="#000000" stroke-width="1" stroke-linecap="round" d="M 136.300 159.450 L 136.550 157.400 L 137.450 155.100 L 138.350 153.300 L 139.050 151.750 L 140.300 149.750 L 141.750 148.100 L 143.950 147.200 L 146.250 146.500 L 149.550 146.950 L 151.900 148.150 L 154.600 187.650 L 150.500 188.300 L 148.050 155 L 145.450 155.250 L 144.500 157.750 L 143.300 159.950 L 141.500 161.900 L 139.350 162.450 L 137.500 161.250 L 136.300 159.450 Z "/>
    </g>
  </g>
</svg>