<svg version="1.1" width="266" height="80" viewBox="-1 -1 266 80" xmlns="http://www.w3.org/2000/svg" xmlns:xlink="http://www.w3.org/1999/xlink">
  <defs>
    <linearGradient id="grad_1" y2="1">
      <stop offset="0" stop-color="#4C0099" stop-opacity="1"/>
      <stop offset="1" stop-color="#FFFF00" stop-opacity="1"/>
    </linearGradient>
    <linearGradient id="grad_2" y2="1">
      <stop offset="0" stop-color="#4C0099" stop-opacity="1"/>
      <stop offset="1" stop-color="#FFFF00" stop-opacity="1"/>
    </linearGradient>
    <linearGradient id="grad_3" y2="1">
      <stop offset="0" stop-color="#4C0099" stop-opacity="1"/>
      <stop offset="1" stop-color="#FFFF00" stop-opacity="1"/>
    </linearGradient>
    <linearGradient id="grad_4" y2="1">
      <stop offset="0" stop-color="#4C0099" stop-opacity="1"/>
      <stop offset="1" stop-color="#FFFF00" stop-opacity="1"/>
    </linearGradient>
    <linearGradient id="grad_5" y2="1">
      <stop offset="0" stop-color="#4C0099" stop-opacity="1"/>
      <stop offset="1" stop-color="#FFFF00" stop-opacity="1"/>
    </linearGradient>
    <linearGradient id="grad_6" y2="1">
      <stop offset="0" stop-color="#4C0099" stop-opacity="1"/>
      <stop offset="1" stop-color="#FFFF00" stop-opacity="1"/>
    </linearGradient>
    <linearGradient id="grad_7" y2="1">
      <stop offset="0" stop-color="#4C0099" stop-opacity="1"/>
      <stop offset="1" stop-color="#FFFF00" stop-opacity="1"/>
    </linearGradient>
    <linearGradient id="grad_8" y2="1">
      <stop offset="0" stop-color="#4C0099" stop-opacity="1"/>
      <stop offset="1" stop-color="#FFFF00" stop-opacity="1"/>
    </linearGradient>
    <linearGradient id="grad_9" y2="1">
      <stop offset="0" stop-color="#4C0099" stop-opacity="1"/>
      <stop offset="1" stop-color="#FFFF00" stop-opacity="1"/>
    </linearGradient>
    <linearGradient id="grad_10" y2="1">
      <stop offset="0" stop-color="#4C0099" stop-opacity="1"/>
      <stop offset="1" stop-color="#FFFF00" stop-opacity="1"/>
    </linearGradient>
  </defs>
  <!-- Exported by Scratch - http://scratch.mit.edu/ -->
  <g id="ID0.45483956718817353" transform="matrix(1, 0, 0, 1, -111, -137)">
    <path id="ID0.22094288188964128" fill="url(#grad_1)" stroke="#000000" stroke-width="1" stroke-linecap="round" d="M 256.600 155.250 L 248.650 155.300 L 249.550 194.900 L 256.850 194.750 L 257.550 178.750 L 264.650 178.850 L 265.100 194.600 L 272.600 194.650 L 271.250 155.500 L 265.100 155.350 L 264.900 167.300 L 256.700 167.650 L 256.600 155.250 Z " transform="matrix(1, 0, 0, 1, -83.6, -8.25)"/>
    <path id="ID0.4784581628628075" fill="url(#grad_2)" stroke="#000000" stroke-width="1" stroke-linecap="round" d="M 306.250 219.750 L 301.750 219.750 L 301 175.250 L 318.250 175.250 L 315.700 190.450 L 307 191.750 L 306.250 219.750 Z " transform="matrix(1, 0, 0, 1, -84.25, -4.05)"/>
    <path id="ID0.36233857460319996" fill="#FFFFFF" stroke="#000000" stroke-width="1" stroke-linecap="round" d="M 305.750 182 L 305.750 186.750 L 311.250 186.250 L 310.750 181.250 L 305.750 182 Z " transform="matrix(1, 0, 0, 1, -84.25, -4.05)"/>
    <path id="ID0.20162828778848052" fill="url(#grad_3)" stroke="#000000" stroke-width="1" stroke-linecap="round" d="M 339 171.500 L 337.750 175.500 L 331 175.250 L 330.500 181.250 L 333.500 181 L 333.750 185 L 330 184.500 L 329.250 189 L 335.250 189.250 L 336 193.250 L 325.350 193.250 L 326 174.750 L 326.500 170.500 L 339 171.500 Z " transform="matrix(1, 0, 0, 1, -87.4, -6.9)"/>
    <path id="ID0.8206952442415059" fill="url(#grad_4)" stroke="#000000" stroke-width="1" stroke-linecap="round" d="M 347.500 192.250 L 344.700 192.350 L 344 171 L 356.250 171.250 L 350.750 178.750 L 347.500 178.750 L 358.550 192.250 L 354.050 192.250 L 347.500 183.500 L 347.500 192.250 Z " transform="matrix(1, 0, 0, 1, -90.35, -5.8)"/>
    <path id="ID0.6867356770671904" fill="#FFFFFF" stroke="#000000" stroke-width="1" stroke-linecap="round" d="M 350.950 175.150 L 350.800 174.850 L 347.500 173.750 L 347.500 176.750 L 350.950 175.150 Z " transform="matrix(1, 0, 0, 1, -90.35, -5.8)"/>
    <path id="ID0.38201803667470813" fill="url(#grad_5)" stroke="#000000" stroke-width="1" stroke-linecap="round" d="M 282.250 196.200 L 286.550 185.200 L 281.500 174.500 L 285.750 173 L 288.800 181 L 293 174.700 L 295.250 177.500 L 286 198.700 L 282.500 196.500 Z " transform="matrix(1, 0, 0, 1, -83.85, -2.4)"/>
    <path id="ID0.9977840157225728" fill="url(#grad_6)" stroke="#000000" stroke-width="1" stroke-linecap="round" d="M 306.450 189.100 L 317.250 178.250 L 326.450 189.100 L 339.700 158.600 L 334.400 155.900 L 323.250 172.500 L 319.250 163.250 L 311.900 172.500 L 309 156 L 298.750 156.250 L 306.450 189.100 Z " transform="matrix(1, 0, 0, 1, -30.55, -3.05)"/>
    <path id="ID0.6927947201766074" fill="url(#grad_7)" stroke="#000000" stroke-width="1" stroke-linecap="round" d="M 344.500 179.500 L 349.500 173.750 L 359.750 173.500 L 364.250 178.750 L 364 185.500 L 359 190.500 L 350.250 190.500 L 345.250 186.500 L 344.750 180.250 Z " transform="matrix(1, 0, 0, 1, -39.15, -4.25)"/>
    <path id="ID0.9116705036722124" fill="#FFFFFF" stroke="#000000" stroke-width="1" stroke-linecap="round" d="M 350.900 179.850 L 357 180 L 356.500 185.250 L 351.600 184.750 L 350.900 179.850 Z " transform="matrix(1, 0, 0, 1, -39.15, -4.25)"/>
    <path id="ID0.45229941653087735" fill="url(#grad_8)" stroke="#000000" stroke-width="1" stroke-linecap="round" d="M 368.250 173.750 L 364.250 173.750 L 363.550 191.600 L 367.850 191.550 L 368.250 180 L 375.250 177.750 L 374.750 175.750 L 368.750 176.250 L 368.250 173.750 Z " transform="matrix(1, 0, 0, 1, -34.15, -5.3)"/>
    <path id="ID0.7861217902973294" fill="url(#grad_9)" stroke="#000000" stroke-width="1" stroke-linecap="round" d="M 382.400 191.700 L 380.750 154 L 386.750 153.500 L 386.150 191.650 L 382.400 191.700 Z " transform="matrix(1, 0, 0, 1, -36.9, -5.4)"/>
    <path id="ID0.6203547702170908" fill="url(#grad_10)" stroke="#000000" stroke-width="1" stroke-linecap="round" d="M 393.750 191.650 L 393.750 184.500 L 397.500 179.250 L 408.500 179.250 L 408.250 153 L 415.250 152.500 L 414.250 178.250 L 414.200 191.550 L 393.750 191.650 Z " transform="matrix(1, 0, 0, 1, -40.15, -5.4)"/>
    <path id="ID0.22652089083567262" fill="#FFFFFF" stroke="#000000" stroke-width="1" stroke-linecap="round" d="M 408 186.750 L 401.250 183.500 L 401 189 L 408 186.750 Z " transform="matrix(1, 0, 0, 1, -40.15, -5.4)"/>
    <g id="ID0.05313511285930872">
      <path id="ID0.1628156565129757" fill="#FF9400" stroke="#000000" stroke-width="1" stroke-linecap="round" d="M 156.100 187.500 L 112.400 187.750 L 111.750 149.100 L 147.600 149 L 154.400 154.100 L 156.100 187.500 Z "/>
      <path id="ID0.016201624181121588" fill="none" stroke="#663B00" stroke-width="1" stroke-linecap="round" d="M 141.800 186.950 L 141.250 149.550 " transform="matrix(1, 0, 0, 1, -2, 0)"/>
      <path id="ID0.12415427761152387" fill="none" stroke="#663B00" stroke-width="1" stroke-linecap="round" d="M 131.700 187 L 131.400 149.400 " transform="matrix(1, 0, 0, 1, -2.75, 0)"/>
      <path id="ID0.923072753008455" fill="none" stroke="#663B00" stroke-width="1" stroke-linecap="round" d="M 121.800 187.300 L 121.350 149.700 " transform="matrix(1, 0, 0, 1, -3.75, -0.15)"/>
      <path id="ID0.4367171097546816" fill="#663B00" stroke="black" stroke-width="1" stroke-linecap="round" d="M 147.500 149.200 L 148.500 187.500 L 156 187.500 L 154.250 154.200 L 147.750 149.200 Z "/>
      <path id="ID0.31508035585284233" fill="#0EC901" stroke="#000000" stroke-width="1" stroke-linecap="round" d="M 125.650 149 L 128 147.850 L 129.100 146.250 L 129.250 142.100 L 130 139.350 L 131.100 141.700 L 131 146.200 L 132.500 147.750 L 134.850 148.850 L 125.650 149 Z "/>
      <path id="ID0.3348941835574806" fill="#663B00" stroke="#000000" stroke-linecap="round" d="M 119.800 164 L 118.650 160.150 L 119.900 156.800 L 122 155.850 L 124.900 157 L 125.800 160.100 L 124.800 164.200 L 122.350 164.800 L 119.800 164 Z "/>
      <path id="ID0.47325914865359664" fill="#663B00" stroke="#000000" stroke-linecap="round" d="M 118.900 175.550 L 121.700 171.100 L 124.150 173.050 L 127.900 171 L 130.950 173.150 L 133.950 170.650 L 136.850 172.800 L 139.500 170.100 L 141.200 175.600 L 137.900 180.050 L 134.900 176.100 L 131.850 180.100 L 129 176.600 L 126.150 180.150 L 123.900 176.600 L 121.650 180.300 L 118.900 175.550 Z "/>
      <path id="ID0.3348941835574806" fill="#663B00" stroke="#000000" stroke-linecap="round" d="M 119.800 164 L 118.650 160.150 L 119.900 156.800 L 122 155.850 L 124.900 157 L 125.800 160.100 L 124.800 164.200 L 122.350 164.800 L 119.800 164 Z " transform="matrix(1, 0, 0, 1, 13.65, 0.05)"/>
      <path id="ID0.10964954923838377" fill="none" stroke="#2E1A00" stroke-width="1" stroke-linecap="round" d="M 150.650 187.100 L 149.650 151.250 "/>
      <path id="ID0.6833178759552538" fill="none" stroke="#2E1A00" stroke-width="1" stroke-linecap="round" d="M 154 187.250 L 152.250 153.350 "/>
    </g>
  </g>
</svg>