<svg version="1.1" width="272" height="71" viewBox="-1 -1 272 71" xmlns="http://www.w3.org/2000/svg" xmlns:xlink="http://www.w3.org/1999/xlink">
  <defs>
    <linearGradient id="grad_1" y2="1">
      <stop offset="0" stop-color="#003FFF" stop-opacity="1"/>
      <stop offset="1" stop-color="#00FFFF" stop-opacity="1"/>
    </linearGradient>
    <linearGradient id="grad_2" y2="1">
      <stop offset="0" stop-color="#FF0000" stop-opacity="1"/>
      <stop offset="1" stop-color="#00FFFF" stop-opacity="1"/>
    </linearGradient>
    <linearGradient id="grad_3" y2="1">
      <stop offset="0" stop-color="#FF0000" stop-opacity="1"/>
      <stop offset="1" stop-color="#00FFFF" stop-opacity="1"/>
    </linearGradient>
    <linearGradient id="grad_4" y2="1">
      <stop offset="0" stop-color="#FF0000" stop-opacity="1"/>
      <stop offset="1" stop-color="#00FFFF" stop-opacity="1"/>
    </linearGradient>
    <linearGradient id="grad_5" y2="1">
      <stop offset="0" stop-color="#FF0000" stop-opacity="1"/>
      <stop offset="1" stop-color="#00FFFF" stop-opacity="1"/>
    </linearGradient>
    <linearGradient id="grad_6" y2="1">
      <stop offset="0" stop-color="#FF0000" stop-opacity="1"/>
      <stop offset="1" stop-color="#00FFFF" stop-opacity="1"/>
    </linearGradient>
    <linearGradient id="grad_7" y2="1">
      <stop offset="0" stop-color="#FF0000" stop-opacity="1"/>
      <stop offset="1" stop-color="#00FFFF" stop-opacity="1"/>
    </linearGradient>
    <linearGradient id="grad_8" y2="1">
      <stop offset="0" stop-color="#FF0000" stop-opacity="1"/>
      <stop offset="1" stop-color="#00FFFF" stop-opacity="1"/>
    </linearGradient>
    <linearGradient id="grad_9" y2="1">
      <stop offset="0" stop-color="#FF0000" stop-opacity="1"/>
      <stop offset="1" stop-color="#00FFFF" stop-opacity="1"/>
    </linearGradient>
    <linearGradient id="grad_10" y2="1">
      <stop offset="0" stop-color="#FF0000" stop-opacity="1"/>
      <stop offset="1" stop-color="#00FFFF" stop-opacity="1"/>
    </linearGradient>
    <linearGradient id="grad_11" y2="1">
      <stop offset="0" stop-color="#FF0000" stop-opacity="1"/>
      <stop offset="1" stop-color="#00FFFF" stop-opacity="1"/>
    </linearGradient>
  </defs>
  <!-- Exported by Scratch - http://scratch.mit.edu/ -->
  <path id="ID0.7208182071335614" fill="url(#grad_1)" stroke="#000000" stroke-width="2" stroke-linecap="round" d="M 171.500 150 C 169.817 155.267 171.488 161.371 172.250 167 C 173.575 176.206 173.168 186.364 177.750 194.500 C 179.798 198.129 185.327 197.939 189.250 198 C 200.271 198.193 211.462 197.522 222 195.250 C 225.770 194.437 230.945 192.815 231.750 189 C 234.039 179.782 230.993 170.077 230.250 160.500 C 229.869 155.578 231.598 149.936 228.750 145.750 C 227.231 143.525 222.057 144.405 220.750 146.750 C 218.658 150.507 221.172 155.361 221 159.750 C 220.672 167.860 223.219 177.099 219.250 184.250 C 216.642 188.950 209.624 189.949 204.250 190.500 C 198.798 190.822 191.930 190.734 188.250 186.750 C 183.282 181.374 183.562 173.013 181.750 165.750 C 180.309 159.985 181.550 153.192 178.250 148.250 C 176.920 146.261 172.208 147.789 171.500 150 Z " transform="matrix(0.7929793000221252, 0, 0, 0.7929793000221252, -134.3, -111.35)"/>
  <path id="ID0.22094288188964128" fill="url(#grad_2)" stroke="#000000" stroke-width="1" stroke-linecap="round" d="M 256.600 155.250 L 248.650 155.300 L 249.550 194.900 L 256.850 194.750 L 257.550 178.750 L 264.650 178.850 L 265.100 194.600 L 272.600 194.650 L 271.250 155.500 L 265.100 155.350 L 264.900 167.300 L 256.700 167.650 L 256.600 155.250 Z " transform="matrix(1, 0, 0, 1, -188.6, -154.25)"/>
  <path id="ID0.4784581628628075" fill="url(#grad_3)" stroke="#000000" stroke-width="1" stroke-linecap="round" d="M 306.250 219.750 L 301.750 219.750 L 301 175.250 L 318.250 175.250 L 315.700 190.450 L 307 191.750 L 306.250 219.750 Z " transform="matrix(1, 0, 0, 1, -189.25, -150.1)"/>
  <path id="ID0.36233857460319996" fill="#FFFFFF" stroke="#000000" stroke-width="1" stroke-linecap="round" d="M 305.750 182 L 305.750 186.750 L 311.250 186.250 L 310.750 181.250 L 305.750 182 Z " transform="matrix(1, 0, 0, 1, -189.25, -150.1)"/>
  <path id="ID0.20162828778848052" fill="url(#grad_4)" stroke="#000000" stroke-width="1" stroke-linecap="round" d="M 339 171.500 L 337.750 175.500 L 331 175.250 L 330.500 181.250 L 333.500 181 L 333.750 185 L 330 184.500 L 329.250 189 L 335.250 189.250 L 336 193.250 L 325.350 193.250 L 326 174.750 L 326.500 170.500 L 339 171.500 Z " transform="matrix(1, 0, 0, 1, -192.4, -152.9)"/>
  <path id="ID0.8206952442415059" fill="url(#grad_5)" stroke="#000000" stroke-width="1" stroke-linecap="round" d="M 347.500 192.250 L 344.700 192.350 L 344 171 L 356.250 171.250 L 350.750 178.750 L 347.500 178.750 L 358.550 192.250 L 354.050 192.250 L 347.500 183.500 L 347.500 192.250 Z " transform="matrix(1, 0, 0, 1, -195.35, -151.8)"/>
  <path id="ID0.6867356770671904" fill="#FFFFFF" stroke="#000000" stroke-width="1" stroke-linecap="round" d="M 350.950 175.150 L 350.800 174.850 L 347.500 173.750 L 347.500 176.750 L 350.950 175.150 Z " transform="matrix(1, 0, 0, 1, -195.35, -151.8)"/>
  <path id="ID0.38201803667470813" fill="url(#grad_6)" stroke="#000000" stroke-width="1" stroke-linecap="round" d="M 282.250 196.200 L 286.550 185.200 L 281.500 174.500 L 285.750 173 L 288.800 181 L 293 174.700 L 295.250 177.500 L 286 198.700 L 282.500 196.500 Z " transform="matrix(1, 0, 0, 1, -188.85, -148.45)"/>
  <path id="ID0.9977840157225728" fill="url(#grad_7)" stroke="#000000" stroke-width="1" stroke-linecap="round" d="M 306.450 189.100 L 317.250 178.250 L 326.450 189.100 L 339.700 158.600 L 334.400 155.900 L 323.250 172.500 L 319.250 163.250 L 311.900 172.500 L 309 156 L 298.750 156.250 L 306.450 189.100 Z " transform="matrix(1, 0, 0, 1, -135.55, -149.1)"/>
  <path id="ID0.6927947201766074" fill="url(#grad_8)" stroke="#000000" stroke-width="1" stroke-linecap="round" d="M 344.500 179.500 L 349.500 173.750 L 359.750 173.500 L 364.250 178.750 L 364 185.500 L 359 190.500 L 350.250 190.500 L 345.250 186.500 L 344.750 180.250 Z " transform="matrix(1, 0, 0, 1, -144.15, -150.25)"/>
  <path id="ID0.9116705036722124" fill="#FFFFFF" stroke="#000000" stroke-width="1" stroke-linecap="round" d="M 350.900 179.850 L 357 180 L 356.500 185.250 L 351.600 184.750 L 350.900 179.850 Z " transform="matrix(1, 0, 0, 1, -144.15, -150.25)"/>
  <path id="ID0.45229941653087735" fill="url(#grad_9)" stroke="#000000" stroke-width="1" stroke-linecap="round" d="M 368.250 173.750 L 364.250 173.750 L 363.550 191.600 L 367.850 191.550 L 368.250 180 L 375.250 177.750 L 374.750 175.750 L 368.750 176.250 L 368.250 173.750 Z " transform="matrix(1, 0, 0, 1, -139.15, -151.3)"/>
  <path id="ID0.7861217902973294" fill="url(#grad_10)" stroke="#000000" stroke-width="1" stroke-linecap="round" d="M 382.400 191.700 L 380.750 154 L 386.750 153.500 L 386.150 191.650 L 382.400 191.700 Z " transform="matrix(1, 0, 0, 1, -141.9, -151.4)"/>
  <path id="ID0.6203547702170908" fill="url(#grad_11)" stroke="#000000" stroke-width="1" stroke-linecap="round" d="M 393.750 191.650 L 393.750 184.500 L 397.500 179.250 L 408.500 179.250 L 408.250 153 L 415.250 152.500 L 414.250 178.250 L 414.200 191.550 L 393.750 191.650 Z " transform="matrix(1, 0, 0, 1, -145.15, -151.4)"/>
  <path id="ID0.22652089083567262" fill="#FFFFFF" stroke="#000000" stroke-width="1" stroke-linecap="round" d="M 408 186.750 L 401.250 183.500 L 401 189 L 408 186.750 Z " transform="matrix(1, 0, 0, 1, -145.15, -151.4)"/>
  <path id="ID0.24247434362769127" fill="#6ADE94" stroke="#000000" stroke-width="1" stroke-linecap="round" d="M 132.750 164.850 C 133.039 162.115 137.022 159.585 139.750 160.200 C 143.786 161.260 146.702 165.278 148.900 168.850 C 149.497 169.820 146.035 170.206 146.500 171.200 C 147.590 173.658 150.954 174.386 152.400 176.600 C 153.906 178.907 156.455 183.398 155.150 184.350 C 153.630 185.523 149.286 182.461 146.750 180.850 C 144.602 179.485 143.413 176.764 141.100 175.700 C 140.059 175.221 138.589 177.754 137.900 176.850 C 135.219 173.334 132.294 169.174 132.750 164.850 Z " transform="matrix(1, 0, 0, 1, -119, -151)"/>
  <path id="ID0.41077139833942056" fill="none" stroke="#94DEAF" stroke-width="1" stroke-linecap="round" d="M 136.050 162.350 C 136.050 162.350 137.297 161.397 137.950 161.400 C 139.191 161.407 140.473 161.831 141.550 162.350 C 142.480 162.799 143.288 163.531 144 164.250 C 145.115 165.375 147.050 167.900 147.050 167.900 " transform="matrix(1, 0, 0, 1, -119, -151)"/>
</svg>